<?xml version="1.0" encoding="UTF-8" standalone="no"?> <svg xmlns="http://www.w3.org/2000/svg" width="1464.752" height="1706.599" viewBox="0 0 1464.752 1706.599">
  <g id="Layer_x0020_1" transform="translate(-767.625 -646.741)">
    <path id="Path_260" data-name="Path 260" d="M1119.57,2219.85a26.67,26.67,0,1,0,0-53.34h-89.14a14.341,14.341,0,0,1-14.23-14.23V1585.06a14.248,14.248,0,0,1,14.23-14.23h953.75a14.248,14.248,0,0,1,14.23,14.23v567.22a14.341,14.341,0,0,1-14.23,14.23h-89.14a26.67,26.67,0,1,0,0,53.34h89.14a67.7,67.7,0,0,0,67.57-67.57V1585.06a67.793,67.793,0,0,0-67.57-67.57H1030.43a67.793,67.793,0,0,0-67.57,67.57v567.22a67.7,67.7,0,0,0,67.57,67.57h89.14Zm621.37,0a26.67,26.67,0,1,0,0-53.34H1273.67a26.67,26.67,0,1,0,0,53.34Z" fill="#022a32"/>
    <path id="Path_261" data-name="Path 261" d="M1119.57,2219.85a26.67,26.67,0,1,0,0-53.34H945.73a26.669,26.669,0,0,0-26.67,26.67v133.49a26.669,26.669,0,0,0,26.67,26.67H2054.26a26.669,26.669,0,0,0,26.67-26.67V2193.18a26.669,26.669,0,0,0-26.67-26.67H1895.04a26.67,26.67,0,1,0,0,53.34h132.55V2300H972.4v-80.15h147.17Z" fill="#022a32"/>
    <path id="Path_262" data-name="Path 262" d="M1931.1,1306.33c-451.38-301.24-871.9-.2-873.13.66l.01.06a26.661,26.661,0,0,1-41.81-24.85c1.49-39.65,30.53-614.64,472.73-634.96,458.35-21.07,484.86,632.46,485.04,636.78h.08a26.666,26.666,0,0,1-42.92,22.33Zm-858.07-71.13c121.44-68.47,468.73-222.04,843.37-.89-16.53-146.19-92.3-549.26-425.2-533.96-332.96,15.3-403.47,395.28-418.17,534.85Z" fill="#022a32"/>
    <path id="Path_263" data-name="Path 263" d="M1661.9,1525.1a26.6,26.6,0,0,0,37.09,38.13l266.94-258.94a26.6,26.6,0,0,0-37.09-38.13L1661.9,1525.1Z" fill="#022a32"/>
    <path id="Path_264" data-name="Path 264" d="M1315.9,1569.69a26.659,26.659,0,1,0,15.42-51.04c-3.36-1.02-35.32-29.77-76.02-67.28-76.24-70.28-176.54-167.63-193.78-184.9a26.594,26.594,0,0,0-37.71,37.51c17.57,17.6,119.11,116.2,195.44,186.56,45.88,42.28,84.66,75.53,96.64,79.15Z" fill="#022a32"/>
    <path id="Path_265" data-name="Path 265" d="M1768.2,1186.62a26.609,26.609,0,1,0-52.92-5.62c-7.13,65.59-20.82,137.44-48.6,199.76-26.73,59.96-66.7,111.3-126.88,139.25a26.611,26.611,0,0,0,22.29,48.33c73.52-34.15,121.58-95.15,153.13-165.91,30.5-68.41,45.36-145.7,52.98-215.8Z" fill="#022a32"/>
    <path id="Path_266" data-name="Path 266" d="M1285.66,1181a26.609,26.609,0,0,0-52.92,5.62c7.86,72.31,22.52,149.29,53.14,216.95,31.7,70.06,80.22,129.94,155.21,164.76a26.611,26.611,0,0,0,22.29-48.33c-61.71-28.65-102.13-79.03-128.96-138.3-27.91-61.69-41.43-133.17-48.76-200.7Z" fill="#022a32"/>
    <path id="Path_267" data-name="Path 267" d="M1197.43,1455.19a26.605,26.605,0,1,0-11.87-51.87l-2.31.53c-123.19,28.31-272.19,62.59-306.51,215.26l-88.76,226.83-.05-.02a26.116,26.116,0,0,0-.89,2.67c-6.42,18.3-52.02,158.06,23.96,236.75l.03-.03.03.04-.08.08c.44.45.89.89,1.35,1.3l113.83,124.36a26.543,26.543,0,0,0,39.17-35.83L851.51,2050.91a27.03,27.03,0,0,0-2.16-2.53l-.05.05c-53.84-55.83-17.56-166.6-12.18-181.93l.48-1.14-.06-.02v-.01l.02.01,88.83-227a27.29,27.29,0,0,0,1.93-5.74l-.03-.09c26.16-121.46,157.97-151.75,266.84-176.78l2.31-.53Z" fill="#022a32"/>
    <path id="Path_268" data-name="Path 268" d="M1806.45,1399.73a26.663,26.663,0,0,0-11.46,52.08c57.46,12.65,122.43,28.07,174.9,56.14,49.41,26.43,88.97,64.83,101.83,124.54l-.03.09a27.3,27.3,0,0,0,1.93,5.74l88.83,227,.02-.01v.01l.42,1.17c5.38,15.33,41.66,126.11-12.18,181.93l-.05-.05a26.98,26.98,0,0,0-2.16,2.53l-113.82,124.35a26.543,26.543,0,0,0,39.17,35.83l113.83-124.36c.46-.42.91-.85,1.35-1.3l-.08-.08.03-.04.03.03c75.97-78.7,30.37-218.45,23.95-236.75a25.35,25.35,0,0,0-.89-2.67l-88.77-226.73c-17.25-76.59-66.84-125.18-128.41-158.11-59.12-31.62-127.86-48.01-188.44-61.35Z" fill="#022a32"/>
    <path id="Path_269" data-name="Path 269" d="M1868.38,2179.06H1767.61v28.24h100.77Z" fill="#db5656"/>
    <path id="Path_270" data-name="Path 270" d="M1753.9,2125.72h128.19a39.673,39.673,0,0,1,39.63,39.63v55.67a39.673,39.673,0,0,1-39.63,39.63H1753.9a39.729,39.729,0,0,1-39.63-39.63v-55.67a39.742,39.742,0,0,1,39.63-39.63Z" fill="#db5656"/>
    <path id="Path_271" data-name="Path 271" d="M1247.01,2179.06H1146.24v28.24h100.77Z" fill="#022a32"/>
    <path id="Path_272" data-name="Path 272" d="M1132.53,2125.72h128.19a39.673,39.673,0,0,1,39.63,39.63v55.67a39.673,39.673,0,0,1-39.63,39.63H1132.53a39.729,39.729,0,0,1-39.63-39.63v-55.67a39.742,39.742,0,0,1,39.63-39.63Z" fill="#db5656"/>
    <path id="Path_273" data-name="Path 273" d="M1392.33,1791.58a26.67,26.67,0,0,0-53.34,0v154.19a26.67,26.67,0,0,0,53.34,0V1791.58Z" fill="#db5656"/>
    <path id="Path_274" data-name="Path 274" d="M1533.98,1735.34a26.67,26.67,0,1,0-53.34,0v266.67a26.67,26.67,0,0,0,53.34,0Z" fill="#db5656"/>
    <path id="Path_275" data-name="Path 275" d="M1675.63,1791.58a26.67,26.67,0,1,0-53.34,0v154.19a26.67,26.67,0,0,0,53.34,0V1791.58Z" fill="#db5656"/>
  </g>
</svg>
